<!DOCTYPE svg PUBLIC "-//W3C//DTD SVG 1.1//EN" "http://www.w3.org/Graphics/SVG/1.1/DTD/svg11.dtd">
<!-- Uploaded to: SVG Repo, www.svgrepo.com, Transformed by: SVG Repo Mixer Tools -->
<svg width="800px" height="800px" viewBox="-102.4 -102.4 1228.80 1228.80" class="icon" version="1.1" xmlns="http://www.w3.org/2000/svg" fill="#000000">
<g id="SVGRepo_bgCarrier" stroke-width="0" transform="translate(209.92000000000002,209.92000000000002), scale(0.59)">
<path transform="translate(-102.4, -102.4), scale(38.4)" d="M16,26.97138504187266C18.584860302796127,26.883914950846457,21.50451544617171,29.333448441506004,23.56041348411848,27.764233013541435C25.667206928659255,26.156170397746674,24.0029732502447,22.565492214373542,24.993236172912336,20.107073344801798C25.912623930658746,17.824608596946504,29.031676720827473,16.583509415859478,29.055188891426184,14.122947213408619C29.078577562356358,11.675309322438988,27.004464636592907,9.655381860150342,25.10789497069422,8.107964082809303C23.387154299373613,6.704005792812325,21.098492909571252,6.5188562114519595,18.96779759091248,5.892609617023112C16.83644215368733,5.266169002829686,14.821302372329843,4.303712373006026,12.603542513891803,4.432728082131435C9.992812713333347,4.584604379861485,7.255326567858117,5.00454323314721,5.256007745214884,6.69027771602423C3.127165734453761,8.485220246196995,1.6900787882746755,11.130652331733232,1.377918915801942,13.897662127057831C1.0696407503277843,16.630264164580137,2.400693866203802,19.187582071488706,3.5650749193759186,21.678840003898145C4.7199527878053935,24.149765344748523,5.593804068117844,27.2191379638058,8.103439778982096,28.28728754593353C10.60953762968489,29.353931346231363,13.277910641656872,27.06349888017107,16,26.97138504187266" fill="#d9dce1" strokewidth="0"/>
</g>
<g id="SVGRepo_tracerCarrier" stroke-linecap="round" stroke-linejoin="round"/>
<g id="SVGRepo_iconCarrier">
<path d="M779.5 1002.7h-535c-64.3 0-116.5-52.3-116.5-116.5V170.7h768v715.5c0 64.2-52.3 116.5-116.5 116.5zM213.3 256v630.1c0 17.2 14 31.2 31.2 31.2h534.9c17.2 0 31.2-14 31.2-31.2V256H213.3z" fill="#7397c4"/>
<path d="M917.3 256H106.7C83.1 256 64 236.9 64 213.3s19.1-42.7 42.7-42.7h810.7c23.6 0 42.7 19.1 42.7 42.7S940.9 256 917.3 256zM618.7 128H405.3c-23.6 0-42.7-19.1-42.7-42.7s19.1-42.7 42.7-42.7h213.3c23.6 0 42.7 19.1 42.7 42.7S642.2 128 618.7 128zM405.3 725.3c-23.6 0-42.7-19.1-42.7-42.7v-256c0-23.6 19.1-42.7 42.7-42.7S448 403 448 426.6v256c0 23.6-19.1 42.7-42.7 42.7zM618.7 725.3c-23.6 0-42.7-19.1-42.7-42.7v-256c0-23.6 19.1-42.7 42.7-42.7s42.7 19.1 42.7 42.7v256c-0.1 23.6-19.2 42.7-42.7 42.7z" fill="#444b54"/>
</g>
</svg>