<!DOCTYPE svg PUBLIC "-//W3C//DTD SVG 1.1//EN" "http://www.w3.org/Graphics/SVG/1.1/DTD/svg11.dtd">
<!-- Uploaded to: SVG Repo, www.svgrepo.com, Transformed by: SVG Repo Mixer Tools -->
<svg width="256px" height="256px" viewBox="0 0 512 512" enable-background="new 0 0 512 512" id="Layer_1" version="1.1" xml:space="preserve" xmlns="http://www.w3.org/2000/svg" xmlns:xlink="http://www.w3.org/1999/xlink" fill="#000000" stroke="#000000" stroke-width="0.00512">
<g id="SVGRepo_bgCarrier" stroke-width="0"/>
<g id="SVGRepo_tracerCarrier" stroke-linecap="round" stroke-linejoin="round"/>
<g id="SVGRepo_iconCarrier"> <g> <g> <path d="M376.289,480.643H135.711c-12.131,0-22-9.869-22-22v-337.76c0-12.131,9.869-22,22-22h64.959 c5.522,0,10,4.478,10,10v11.33c0,1.103,0.897,2,2,2h86.66c1.103,0,2-0.897,2-2v-11.33c0-5.522,4.478-10,10-10h64.959 c12.131,0,22,9.869,22,22v337.76C398.289,470.773,388.42,480.643,376.289,480.643z M135.711,118.883c-1.103,0-2,0.897-2,2v337.76 c0,1.103,0.897,2,2,2h240.578c1.103,0,2-0.897,2-2v-337.76c0-1.103-0.897-2-2-2H321.33v1.33c0,12.131-9.869,22-22,22h-86.66 c-12.131,0-22-9.869-22-22v-1.33H135.711z" fill="#444B54"/> </g> <g> <path d="M299.33,142.213h-86.66c-12.131,0-22-9.869-22-22v-22.67c0-12.131,9.869-22,22-22h86.66 c12.131,0,22,9.869,22,22v22.67C321.33,132.344,311.461,142.213,299.33,142.213z M212.67,95.543c-1.103,0-2,0.897-2,2v22.67 c0,1.103,0.897,2,2,2h86.66c1.103,0,2-0.897,2-2v-22.67c0-1.103-0.897-2-2-2H212.67z" fill="#444B54"/> </g> <g> <circle cx="256" cy="63.449" fill="#7397c4" r="22.094"/> <path d="M256,95.543c-17.696,0-32.094-14.397-32.094-32.094c0-17.695,14.397-32.092,32.094-32.092 s32.094,14.396,32.094,32.092C288.094,81.146,273.696,95.543,256,95.543z M256,51.357c-6.669,0-12.094,5.425-12.094,12.092 c0,6.669,5.425,12.094,12.094,12.094s12.094-5.425,12.094-12.094C268.094,56.782,262.669,51.357,256,51.357z" fill="#444B54"/> </g> <g> <path d="M209.296,252.484c-1.592,0-3.189-0.38-4.652-1.148l-16.552-8.702l-16.549,8.702 c-3.371,1.77-7.452,1.477-10.532-0.761c-3.079-2.237-4.621-6.029-3.979-9.781l3.161-18.43l-13.389-13.054 c-2.726-2.657-3.706-6.631-2.53-10.251c1.177-3.619,4.306-6.258,8.072-6.806l18.503-2.688l8.274-16.767 c1.685-3.413,5.161-5.574,8.968-5.574c3.806,0,7.282,2.16,8.967,5.573l8.277,16.768l18.505,2.688 c3.767,0.548,6.896,3.187,8.072,6.807c1.176,3.619,0.195,7.594-2.53,10.25l-13.391,13.054l3.161,18.43 c0.643,3.752-0.899,7.543-3.979,9.78C213.433,251.84,211.369,252.484,209.296,252.484z M188.092,221.336 c1.599,0,3.197,0.383,4.653,1.148l3.271,1.72l-0.625-3.641c-0.556-3.244,0.52-6.554,2.876-8.851l2.646-2.58l-3.657-0.531 c-3.257-0.474-6.072-2.52-7.528-5.47l-1.636-3.313l-1.635,3.313c-1.457,2.951-4.272,4.997-7.529,5.471l-3.657,0.531l2.646,2.58 c2.356,2.297,3.432,5.606,2.876,8.851l-0.624,3.64l3.268-1.719C184.895,221.719,186.493,221.336,188.092,221.336z" fill="#444B54"/> </g> <g> <path d="M209.296,347.465c-1.592,0-3.189-0.38-4.652-1.148l-16.552-8.702l-16.549,8.702 c-3.371,1.77-7.452,1.477-10.532-0.761c-3.079-2.237-4.621-6.029-3.979-9.781l3.161-18.43l-13.389-13.052 c-2.726-2.656-3.706-6.63-2.53-10.25c1.177-3.62,4.306-6.259,8.072-6.807l18.503-2.688l8.274-16.769 c1.685-3.413,5.161-5.574,8.968-5.574c3.806,0,7.282,2.161,8.967,5.574l8.277,16.769l18.505,2.688 c3.767,0.548,6.896,3.187,8.072,6.807c1.176,3.62,0.195,7.594-2.53,10.251l-13.39,13.051l3.16,18.43 c0.643,3.752-0.899,7.543-3.979,9.78C213.433,346.82,211.369,347.465,209.296,347.465z M188.092,316.316 c1.599,0,3.197,0.383,4.653,1.148l3.271,1.72l-0.625-3.641c-0.556-3.244,0.52-6.554,2.876-8.852l2.646-2.577l-3.656-0.531 c-3.257-0.474-6.072-2.52-7.528-5.471l-1.636-3.313l-1.635,3.313c-1.457,2.951-4.272,4.997-7.529,5.471l-3.655,0.531l2.645,2.578 c2.356,2.297,3.432,5.606,2.876,8.851l-0.624,3.64l3.268-1.719C184.895,316.699,186.493,316.316,188.092,316.316z" fill="#444B54"/> </g> <g> <path d="M209.296,442.447c-1.592,0-3.189-0.38-4.652-1.148l-16.552-8.702l-16.549,8.702 c-3.371,1.77-7.452,1.477-10.532-0.761c-3.079-2.237-4.621-6.029-3.979-9.781l3.161-18.43l-13.389-13.052 c-2.726-2.656-3.706-6.63-2.53-10.25c1.177-3.62,4.306-6.259,8.072-6.807l18.503-2.688l8.274-16.769 c1.685-3.413,5.161-5.574,8.968-5.574c3.806,0,7.282,2.161,8.967,5.574l8.277,16.769l18.505,2.688 c3.767,0.548,6.896,3.187,8.072,6.807c1.176,3.62,0.195,7.594-2.53,10.251l-13.39,13.051l3.16,18.43 c0.643,3.752-0.899,7.543-3.979,9.78C213.433,441.803,211.369,442.447,209.296,442.447z M188.092,411.299 c1.599,0,3.197,0.383,4.653,1.148l3.271,1.72l-0.625-3.641c-0.556-3.244,0.52-6.554,2.876-8.852l2.646-2.577l-3.656-0.531 c-3.257-0.474-6.072-2.52-7.528-5.471l-1.636-3.313l-1.635,3.313c-1.457,2.951-4.272,4.997-7.529,5.471l-3.655,0.531l2.645,2.578 c2.356,2.297,3.432,5.606,2.876,8.851l-0.624,3.64l3.268-1.719C184.895,411.682,186.493,411.299,188.092,411.299z" fill="#444B54"/> </g> <g> <path d="M351.002,217.004H256c-5.522,0-10-4.478-10-10s4.478-10,10-10h95.002c5.522,0,10,4.478,10,10 S356.524,217.004,351.002,217.004z" fill="#444B54"/> </g> <g> <path d="M311.33,249.67H256c-5.522,0-10-4.478-10-10s4.478-10,10-10h55.33c5.522,0,10,4.478,10,10 S316.853,249.67,311.33,249.67z" fill="#444B54"/> </g> <g> <path d="M351.002,305.67H256c-5.522,0-10-4.478-10-10s4.478-10,10-10h95.002c5.522,0,10,4.478,10,10 S356.524,305.67,351.002,305.67z" fill="#444B54"/> </g> <g> <path d="M311.33,338.336H256c-5.522,0-10-4.478-10-10s4.478-10,10-10h55.33c5.522,0,10,4.478,10,10 S316.853,338.336,311.33,338.336z" fill="#444B54"/> </g> <g> <path d="M351.002,393.484H256c-5.522,0-10-4.478-10-10s4.478-10,10-10h95.002c5.522,0,10,4.478,10,10 S356.524,393.484,351.002,393.484z" fill="#444B54"/> </g> <g> <path d="M311.33,426.15H256c-5.522,0-10-4.478-10-10s4.478-10,10-10h55.33c5.522,0,10,4.478,10,10 S316.853,426.15,311.33,426.15z" fill="#444B54"/> </g> <g> <path d="M388.289,120.883v337.76c0,6.621-5.369,12-12,12H135.711c-6.621,0-12-5.379-12-12v-337.76 c0-6.631,5.379-12,12-12h64.959v11.33c0,6.629,5.369,12,12,12h86.66c6.631,0,12-5.371,12-12v-11.33h64.959 C382.92,108.883,388.289,114.252,388.289,120.883z" fill="#D9DCE1"/> <path d="M376.289,480.643H135.711c-12.131,0-22-9.869-22-22v-337.76c0-12.131,9.869-22,22-22h64.959 c5.522,0,10,4.478,10,10v11.33c0,1.103,0.897,2,2,2h86.66c1.103,0,2-0.897,2-2v-11.33c0-5.522,4.478-10,10-10h64.959 c12.131,0,22,9.869,22,22v337.76C398.289,470.773,388.42,480.643,376.289,480.643z M135.711,118.883c-1.103,0-2,0.897-2,2v337.76 c0,1.103,0.897,2,2,2h240.578c1.103,0,2-0.897,2-2v-337.76c0-1.103-0.897-2-2-2H321.33v1.33c0,12.131-9.869,22-22,22h-86.66 c-12.131,0-22-9.869-22-22v-1.33H135.711z" fill="#444B54"/> </g> <g> <path d="M311.33,97.543v22.67c0,6.629-5.369,12-12,12h-86.66c-6.631,0-12-5.371-12-12v-22.67 c0-6.621,5.369-12,12-12h86.66C305.961,85.543,311.33,90.922,311.33,97.543z" fill="#7397c4"/> <path d="M299.33,142.213h-86.66c-12.131,0-22-9.869-22-22v-22.67c0-12.131,9.869-22,22-22h86.66 c12.131,0,22,9.869,22,22v22.67C321.33,132.344,311.461,142.213,299.33,142.213z M212.67,95.543c-1.103,0-2,0.897-2,2v22.67 c0,1.103,0.897,2,2,2h86.66c1.103,0,2-0.897,2-2v-22.67c0-1.103-0.897-2-2-2H212.67z" fill="#444B54"/> </g> <g> <circle cx="256" cy="63.449" fill="#7397c4" r="22.094"/> <path d="M256,95.543c-17.696,0-32.094-14.397-32.094-32.094c0-17.695,14.397-32.092,32.094-32.092 s32.094,14.396,32.094,32.092C288.094,81.146,273.696,95.543,256,95.543z M256,51.357c-6.669,0-12.094,5.425-12.094,12.092 c0,6.669,5.425,12.094,12.094,12.094s12.094-5.425,12.094-12.094C268.094,56.782,262.669,51.357,256,51.357z" fill="#444B54"/> </g> <g> <polygon fill="#F1F2F2" points="188.092,177.225 198.695,198.705 222.402,202.15 205.248,218.873 209.297,242.484 188.092,231.336 166.889,242.484 170.938,218.873 153.785,202.15 177.49,198.705 "/> <path d="M209.296,252.484c-1.592,0-3.189-0.38-4.652-1.148l-16.552-8.702l-16.549,8.702 c-3.371,1.77-7.452,1.477-10.532-0.761c-3.079-2.237-4.621-6.029-3.979-9.781l3.161-18.43l-13.389-13.054 c-2.726-2.657-3.706-6.631-2.53-10.251c1.177-3.619,4.306-6.258,8.072-6.806l18.503-2.688l8.274-16.767 c1.685-3.413,5.161-5.574,8.968-5.574c3.806,0,7.282,2.16,8.967,5.573l8.277,16.768l18.505,2.688 c3.767,0.548,6.896,3.187,8.072,6.807c1.176,3.619,0.195,7.594-2.53,10.25l-13.391,13.054l3.161,18.43 c0.643,3.752-0.899,7.543-3.979,9.78C213.433,251.84,211.369,252.484,209.296,252.484z M188.092,221.336 c1.599,0,3.197,0.383,4.653,1.148l3.271,1.72l-0.625-3.641c-0.556-3.244,0.52-6.554,2.876-8.851l2.646-2.58l-3.657-0.531 c-3.257-0.474-6.072-2.52-7.528-5.47l-1.636-3.313l-1.635,3.313c-1.457,2.951-4.272,4.997-7.529,5.471l-3.657,0.531l2.646,2.58 c2.356,2.297,3.432,5.606,2.876,8.851l-0.624,3.64l3.268-1.719C184.895,221.719,186.493,221.336,188.092,221.336z" fill="#444B54"/> </g> <g> <polygon fill="#F1F2F2" points="188.092,272.205 198.695,293.688 222.402,297.133 205.248,313.854 209.297,337.465 188.092,326.316 166.889,337.465 170.938,313.854 153.785,297.133 177.49,293.688 "/> <path d="M209.296,347.465c-1.592,0-3.189-0.38-4.652-1.148l-16.552-8.702l-16.549,8.702 c-3.371,1.77-7.452,1.477-10.532-0.761c-3.079-2.237-4.621-6.029-3.979-9.781l3.161-18.43l-13.389-13.052 c-2.726-2.656-3.706-6.63-2.53-10.25c1.177-3.62,4.306-6.259,8.072-6.807l18.503-2.688l8.274-16.769 c1.685-3.413,5.161-5.574,8.968-5.574c3.806,0,7.282,2.161,8.967,5.574l8.277,16.769l18.505,2.688 c3.767,0.548,6.896,3.187,8.072,6.807c1.176,3.62,0.195,7.594-2.53,10.251l-13.39,13.051l3.16,18.43 c0.643,3.752-0.899,7.543-3.979,9.78C213.433,346.82,211.369,347.465,209.296,347.465z M188.092,316.316 c1.599,0,3.197,0.383,4.653,1.148l3.271,1.72l-0.625-3.641c-0.556-3.244,0.52-6.554,2.876-8.852l2.646-2.577l-3.656-0.531 c-3.257-0.474-6.072-2.52-7.528-5.471l-1.636-3.313l-1.635,3.313c-1.457,2.951-4.272,4.997-7.529,5.471l-3.655,0.531l2.645,2.578 c2.356,2.297,3.432,5.606,2.876,8.851l-0.624,3.64l3.268-1.719C184.895,316.699,186.493,316.316,188.092,316.316z" fill="#444B54"/> </g> <g> <polygon fill="#F1F2F2" points="188.092,367.188 198.695,388.67 222.402,392.115 205.248,408.836 209.297,432.447 188.092,421.299 166.889,432.447 170.938,408.836 153.785,392.115 177.49,388.67 "/> <path d="M209.296,442.447c-1.592,0-3.189-0.38-4.652-1.148l-16.552-8.702l-16.549,8.702 c-3.371,1.77-7.452,1.477-10.532-0.761c-3.079-2.237-4.621-6.029-3.979-9.781l3.161-18.43l-13.389-13.052 c-2.726-2.656-3.706-6.63-2.53-10.25c1.177-3.62,4.306-6.259,8.072-6.807l18.503-2.688l8.274-16.769 c1.685-3.413,5.161-5.574,8.968-5.574c3.806,0,7.282,2.161,8.967,5.574l8.277,16.769l18.505,2.688 c3.767,0.548,6.896,3.187,8.072,6.807c1.176,3.62,0.195,7.594-2.53,10.251l-13.39,13.051l3.16,18.43 c0.643,3.752-0.899,7.543-3.979,9.78C213.433,441.803,211.369,442.447,209.296,442.447z M188.092,411.299 c1.599,0,3.197,0.383,4.653,1.148l3.271,1.72l-0.625-3.641c-0.556-3.244,0.52-6.554,2.876-8.852l2.646-2.577l-3.656-0.531 c-3.257-0.474-6.072-2.52-7.528-5.471l-1.636-3.313l-1.635,3.313c-1.457,2.951-4.272,4.997-7.529,5.471l-3.655,0.531l2.645,2.578 c2.356,2.297,3.432,5.606,2.876,8.851l-0.624,3.64l3.268-1.719C184.895,411.682,186.493,411.299,188.092,411.299z" fill="#444B54"/> </g> <g> <path d="M351.002,217.004H256c-5.522,0-10-4.478-10-10s4.478-10,10-10h95.002c5.522,0,10,4.478,10,10 S356.524,217.004,351.002,217.004z" fill="#444B54"/> </g> <g> <path d="M311.33,249.67H256c-5.522,0-10-4.478-10-10s4.478-10,10-10h55.33c5.522,0,10,4.478,10,10 S316.853,249.67,311.33,249.67z" fill="#444B54"/> </g> <g> <path d="M351.002,305.67H256c-5.522,0-10-4.478-10-10s4.478-10,10-10h95.002c5.522,0,10,4.478,10,10 S356.524,305.67,351.002,305.67z" fill="#444B54"/> </g> <g> <path d="M311.33,338.336H256c-5.522,0-10-4.478-10-10s4.478-10,10-10h55.33c5.522,0,10,4.478,10,10 S316.853,338.336,311.33,338.336z" fill="#444B54"/> </g> <g> <path d="M351.002,393.484H256c-5.522,0-10-4.478-10-10s4.478-10,10-10h95.002c5.522,0,10,4.478,10,10 S356.524,393.484,351.002,393.484z" fill="#444B54"/> </g> <g> <path d="M311.33,426.15H256c-5.522,0-10-4.478-10-10s4.478-10,10-10h55.33c5.522,0,10,4.478,10,10 S316.853,426.15,311.33,426.15z" fill="#444B54"/> </g> </g> </g>
</svg>